<?xml version="1.0" encoding="utf-8"?>
<!-- Generator: Adobe Illustrator 26.0.2, SVG Export Plug-In . SVG Version: 6.00 Build 0)  -->
<svg version="1.1" id="Layer_1" xmlns="http://www.w3.org/2000/svg" xmlns:xlink="http://www.w3.org/1999/xlink" x="0px" y="0px"
	 viewBox="0 0 20 20" style="enable-background:new 0 0 20 20;" xml:space="preserve">
<style type="text/css">
	.st0{fill:none;stroke:#6FB738;stroke-width:1.2;stroke-linecap:round;stroke-linejoin:round;}
</style>
<g>
	<path class="st0" d="M2.3,6.2l7.4,4.3L17,6.2"/>
	<path class="st0" d="M9.7,18v-7.6"/>
	<path class="st0" d="M8,2.1L3.5,4.5c-1,0.6-1.8,2-1.8,3.1v4.7c0,1.1,0.8,2.6,1.8,3.1L8,17.9c1,0.5,2.5,0.5,3.5,0l4.5-2.5
		c1-0.6,1.8-2,1.8-3.1V7.6c0-1.1-0.8-2.5-1.8-3.1l-4.5-2.5C10.5,1.5,8.9,1.5,8,2.1z"/>
	<path class="st0" d="M13.9,11V8L6,3.4"/>
</g>
</svg>
