<svg width="15" height="15" viewBox="0 0 15 15" fill="none" xmlns="http://www.w3.org/2000/svg">
<path opacity="0.6" d="M7.50024 0.40625C8.46704 0.40625 9.38013 0.591797 10.2395 0.962891C11.0891 1.32422 11.8313 1.82715 12.4661 2.47168C13.1106 3.10645 13.6135 3.84863 13.9749 4.69824C14.3459 5.55762 14.5315 6.4707 14.5315 7.4375C14.5315 8.4043 14.3459 9.31738 13.9749 10.1768C13.6135 11.0264 13.1106 11.7734 12.4661 12.418C11.8313 13.0527 11.0891 13.5508 10.2395 13.9121C9.38013 14.2832 8.46704 14.4688 7.50024 14.4688C6.53345 14.4688 5.62036 14.2832 4.76099 13.9121C3.91138 13.5508 3.16431 13.0527 2.51978 12.418C1.88501 11.7734 1.38696 11.0264 1.02563 10.1768C0.654541 9.31738 0.468994 8.4043 0.468994 7.4375C0.468994 6.4707 0.654541 5.55762 1.02563 4.69824C1.38696 3.84863 1.88501 3.10645 2.51978 2.47168C3.16431 1.82715 3.91138 1.32422 4.76099 0.962891C5.62036 0.591797 6.53345 0.40625 7.50024 0.40625ZM10.8987 6.14844C11.0549 5.98242 11.1331 5.78711 11.1331 5.5625C11.1331 5.33789 11.0549 5.14258 10.8987 4.97656C10.7327 4.82031 10.5374 4.74219 10.3127 4.74219C10.0881 4.74219 9.89282 4.82031 9.72681 4.97656L6.56274 8.15527L5.27368 6.85156C5.10767 6.69531 4.91235 6.61719 4.68774 6.61719C4.46313 6.61719 4.26782 6.69531 4.10181 6.85156C3.94556 7.01758 3.86743 7.21289 3.86743 7.4375C3.86743 7.66211 3.94556 7.85742 4.10181 8.02344L5.97681 9.89844C6.0647 9.97656 6.15747 10.0352 6.25513 10.0742C6.35278 10.1133 6.45532 10.1328 6.56274 10.1328C6.67017 10.1328 6.77271 10.1133 6.87036 10.0742C6.96802 10.0352 7.06079 9.97656 7.14868 9.89844L10.8987 6.14844Z" fill="#656B74"/>
</svg>
