<svg width="24" height="25" viewBox="0 0 24 25" fill="none" xmlns="http://www.w3.org/2000/svg">
<path d="M9.31006 14.7397L10.8101 16.2397L14.8101 12.2397" stroke="#ADADAD" stroke-width="1.2" stroke-linecap="round" stroke-linejoin="round"/>
<path d="M10.0002 6.03979H14.0002C16.0002 6.03979 16.0002 5.03979 16.0002 4.03979C16.0002 2.03979 15.0002 2.03979 14.0002 2.03979H10.0002C9.00024 2.03979 8.00024 2.03979 8.00024 4.03979C8.00024 6.03979 9.00024 6.03979 10.0002 6.03979Z" stroke="#ADADAD" stroke-width="1.2" stroke-miterlimit="10" stroke-linecap="round" stroke-linejoin="round"/>
<path d="M16 4.05981C19.33 4.23981 21 5.46981 21 10.0398V16.0398C21 20.0398 20 22.0398 15 22.0398H9C4 22.0398 3 20.0398 3 16.0398V10.0398C3 5.47981 4.67 4.23981 8 4.05981" stroke="#ADADAD" stroke-width="1.2" stroke-miterlimit="10" stroke-linecap="round" stroke-linejoin="round"/>
</svg>
