<svg width="11" height="11" viewBox="0 0 11 11" fill="none" xmlns="http://www.w3.org/2000/svg">
<g clip-path="url(#clip0_26_1016)">
<path d="M5.426 0C4.35284 0 3.30378 0.318229 2.41148 0.914446C1.51918 1.51066 0.823713 2.35809 0.413032 3.34956C0.00235102 4.34103 -0.105102 5.43202 0.104262 6.48456C0.313625 7.5371 0.830401 8.50392 1.58924 9.26276C2.34808 10.0216 3.3149 10.5384 4.36744 10.7477C5.41998 10.9571 6.51097 10.8497 7.50244 10.439C8.49391 10.0283 9.34134 9.33283 9.93756 8.44052C10.5338 7.54822 10.852 6.49916 10.852 5.426C10.8504 3.98742 10.2782 2.60822 9.26101 1.59099C8.24378 0.573764 6.86458 0.00158813 5.426 0ZM5.426 9.7C4.58125 9.6996 3.75558 9.44877 3.05336 8.97921C2.35114 8.50964 1.8039 7.84242 1.48081 7.0619C1.15772 6.28138 1.07329 5.42258 1.23819 4.59408C1.40309 3.76558 1.80991 3.00457 2.40724 2.40724C3.00457 1.80991 3.76559 1.40308 4.59409 1.23818C5.42259 1.07328 6.28138 1.15771 7.0619 1.4808C7.84243 1.80389 8.50964 2.35114 8.97921 3.05336C9.44877 3.75558 9.69961 4.58125 9.7 5.426C9.69921 6.55929 9.24866 7.64594 8.4473 8.4473C7.64594 9.24866 6.55929 9.69921 5.426 9.7Z" fill="#BBBBBB"/>
<path d="M8.25612 5.25888H5.81612V2.32688C5.81612 2.26818 5.80456 2.21006 5.78209 2.15582C5.75963 2.10159 5.7267 2.05231 5.68519 2.01081C5.64368 1.9693 5.59441 1.93637 5.54018 1.91391C5.48594 1.89144 5.42782 1.87988 5.36912 1.87988C5.31042 1.87988 5.25229 1.89144 5.19806 1.91391C5.14383 1.93637 5.09455 1.9693 5.05304 2.01081C5.01153 2.05231 4.97861 2.10159 4.95614 2.15582C4.93368 2.21006 4.92212 2.26818 4.92212 2.32688V5.70588C4.92212 5.82443 4.96921 5.93813 5.05304 6.02196C5.13687 6.10579 5.25057 6.15288 5.36912 6.15288H8.25612C8.37467 6.15288 8.48836 6.10579 8.57219 6.02196C8.65602 5.93813 8.70312 5.82443 8.70312 5.70588C8.70312 5.58733 8.65602 5.47364 8.57219 5.38981C8.48836 5.30598 8.37467 5.25888 8.25612 5.25888Z" fill="#BBBBBB"/>
</g>
<defs>
<clipPath id="clip0_26_1016">
<rect width="10.853" height="10.853" fill="white"/>
</clipPath>
</defs>
</svg>
