<svg width="20" height="20" viewBox="0 0 20 20" fill="none" xmlns="http://www.w3.org/2000/svg">
<path d="M14.1667 11.1666V13.6666C14.1667 17 12.8334 18.3333 9.50008 18.3333H6.33341C3.00008 18.3333 1.66675 17 1.66675 13.6666V10.5C1.66675 7.16665 3.00008 5.83331 6.33341 5.83331H8.83341" stroke="#6FB738" stroke-width="1.2" stroke-linecap="round" stroke-linejoin="round"/>
<path d="M14.1668 11.1666H11.5002C9.50016 11.1666 8.8335 10.5 8.8335 8.49998V5.83331L14.1668 11.1666Z" stroke="#6FB738" stroke-width="1.2" stroke-linecap="round" stroke-linejoin="round"/>
<path d="M9.66699 1.66663H13.0003" stroke="#6FB738" stroke-width="1.2" stroke-linecap="round" stroke-linejoin="round"/>
<path d="M5.83325 4.16669C5.83325 2.78335 6.94992 1.66669 8.33325 1.66669H10.5166" stroke="#6FB738" stroke-width="1.2" stroke-linecap="round" stroke-linejoin="round"/>
<path d="M18.3334 6.66669V11.825C18.3334 13.1167 17.2834 14.1667 15.9917 14.1667" stroke="#6FB738" stroke-width="1.2" stroke-linecap="round" stroke-linejoin="round"/>
<path d="M18.3333 6.66669H15.8333C13.9583 6.66669 13.3333 6.04169 13.3333 4.16669V1.66669L18.3333 6.66669Z" stroke="#6FB738" stroke-width="1.2" stroke-linecap="round" stroke-linejoin="round"/>
</svg>
