<svg width="9" height="5" viewBox="0 0 9 5" fill="none" xmlns="http://www.w3.org/2000/svg">
<path d="M8.70658 1.5405L5.14446 4.75449C5.05072 4.83632 4.94917 4.89956 4.83981 4.9442C4.73044 4.9814 4.61718 5 4.5 5C4.38283 5 4.26956 4.9814 4.16019 4.9442C4.05083 4.89956 3.94928 4.83632 3.85554 4.75449L0.293425 1.5405C0.105946 1.36939 0.00829988 1.16107 0.000488228 0.915558C-0.00732342 0.670046 0.0786048 0.458012 0.258273 0.279457C0.437941 0.100902 0.656667 0.00790477 0.914452 0.000464987C1.17224 -0.0069748 1.39487 0.0748628 1.58235 0.245978L4.5 2.87966L7.41765 0.245978C7.60513 0.0748628 7.82776 -0.0069748 8.08555 0.000464987C8.34333 0.00790477 8.56206 0.100902 8.74173 0.279457C8.9214 0.458012 9.00732 0.670046 8.99951 0.915558C8.9917 1.16107 8.89405 1.36939 8.70658 1.5405Z" fill="#7A7D81"/>
</svg>
