<svg width="20" height="20" viewBox="0 0 20 20" fill="none" xmlns="http://www.w3.org/2000/svg">
<circle cx="10" cy="10" r="10" fill="#8ED557"/>
<path d="M9.7124 12.4185C10.0486 12.4185 10.3374 12.5391 10.5786 12.7803C10.8198 13.0215 10.9404 13.3102 10.9404 13.6465C10.9404 13.9827 10.8198 14.2715 10.5786 14.5127C10.3374 14.7539 10.0486 14.8745 9.7124 14.8745C9.37615 14.8745 9.08742 14.7539 8.8462 14.5127C8.60498 14.2715 8.48438 13.9827 8.48438 13.6465C8.48438 13.3102 8.60498 13.0215 8.8462 12.7803C9.08742 12.5391 9.37615 12.4185 9.7124 12.4185ZM9.67951 11.5413C9.4456 11.534 9.24823 11.4463 9.08742 11.2782C8.92661 11.11 8.84255 10.909 8.83524 10.6751L8.65981 5.99327C8.6525 5.69357 8.74752 5.43773 8.94488 5.22575C9.14224 5.00646 9.38346 4.88951 9.66854 4.87489C9.96093 4.86758 10.2131 4.96626 10.4251 5.17093C10.6371 5.36829 10.7504 5.61682 10.765 5.91652C10.765 5.93114 10.765 5.94576 10.765 5.96038C10.765 5.96768 10.765 5.97865 10.765 5.99327L10.5896 10.6751C10.5822 10.9236 10.4872 11.132 10.3045 11.3001C10.129 11.4682 9.92072 11.5486 9.67951 11.5413Z" fill="white"/>
</svg>
