<svg width="32" height="32" viewBox="0 0 32 32" fill="none" xmlns="http://www.w3.org/2000/svg">
<rect width="32" height="32" rx="4" fill="#F4F4F4"/>
<path d="M21.5 12.5C21.6354 12.5 21.75 12.5521 21.8438 12.6562C21.9479 12.75 22 12.8646 22 13C22 13.1354 21.9479 13.2552 21.8438 13.3594C21.75 13.4531 21.6354 13.5 21.5 13.5H13.5C13.3646 13.5 13.2448 13.4531 13.1406 13.3594C13.0469 13.2552 13 13.1354 13 13C13 12.8646 13.0469 12.75 13.1406 12.6562C13.2448 12.5521 13.3646 12.5 13.5 12.5H21.5ZM11 12.25C11.2083 12.25 11.3854 12.3229 11.5312 12.4688C11.6771 12.6146 11.75 12.7917 11.75 13C11.75 13.2083 11.6771 13.3854 11.5312 13.5312C11.3854 13.6771 11.2083 13.75 11 13.75C10.8021 13.75 10.625 13.6771 10.4688 13.5312C10.3229 13.3854 10.25 13.2083 10.25 13C10.25 12.7917 10.3229 12.6146 10.4688 12.4688C10.625 12.3229 10.8021 12.25 11 12.25ZM11 15.25C11.2083 15.25 11.3854 15.3229 11.5312 15.4688C11.6771 15.6146 11.75 15.7917 11.75 16C11.75 16.2083 11.6771 16.3854 11.5312 16.5312C11.3854 16.6771 11.2083 16.75 11 16.75C10.8021 16.75 10.625 16.6771 10.4688 16.5312C10.3229 16.3854 10.25 16.2083 10.25 16C10.25 15.7917 10.3229 15.6146 10.4688 15.4688C10.625 15.3229 10.8021 15.25 11 15.25ZM21.5 15.5C21.6354 15.5 21.75 15.5521 21.8438 15.6562C21.9479 15.75 22 15.8646 22 16C22 16.1354 21.9479 16.2552 21.8438 16.3594C21.75 16.4531 21.6354 16.5 21.5 16.5H13.5C13.3646 16.5 13.2448 16.4531 13.1406 16.3594C13.0469 16.2552 13 16.1354 13 16C13 15.8646 13.0469 15.75 13.1406 15.6562C13.2448 15.5521 13.3646 15.5 13.5 15.5H21.5ZM11 18.25C11.2083 18.25 11.3854 18.3229 11.5312 18.4688C11.6771 18.6146 11.75 18.7917 11.75 19C11.75 19.2083 11.6771 19.3854 11.5312 19.5312C11.3854 19.6771 11.2083 19.75 11 19.75C10.8021 19.75 10.625 19.6771 10.4688 19.5312C10.3229 19.3854 10.25 19.2083 10.25 19C10.25 18.7917 10.3229 18.6146 10.4688 18.4688C10.625 18.3229 10.8021 18.25 11 18.25ZM21.5 18.5C21.6354 18.5 21.75 18.5521 21.8438 18.6562C21.9479 18.75 22 18.8646 22 19C22 19.1354 21.9479 19.2552 21.8438 19.3594C21.75 19.4531 21.6354 19.5 21.5 19.5H13.5C13.3646 19.5 13.2448 19.4531 13.1406 19.3594C13.0469 19.2552 13 19.1354 13 19C13 18.8646 13.0469 18.75 13.1406 18.6562C13.2448 18.5521 13.3646 18.5 13.5 18.5H21.5ZM23 9C23.5521 9 24.0208 9.19792 24.4062 9.59375C24.8021 9.97917 25 10.4479 25 11V21C25 21.5521 24.8021 22.026 24.4062 22.4219C24.0208 22.8073 23.5521 23 23 23H9C8.44792 23 7.97396 22.8073 7.57812 22.4219C7.19271 22.026 7 21.5521 7 21V11C7 10.4479 7.19271 9.97917 7.57812 9.59375C7.97396 9.19792 8.44792 9 9 9H23ZM24 21V11C24 10.7292 23.901 10.4948 23.7031 10.2969C23.5052 10.099 23.2708 10 23 10H9C8.72917 10 8.49479 10.099 8.29688 10.2969C8.09896 10.4948 8 10.7292 8 11V21C8 21.2708 8.09896 21.5052 8.29688 21.7031C8.49479 21.901 8.72917 22 9 22H23C23.2708 22 23.5052 21.901 23.7031 21.7031C23.901 21.5052 24 21.2708 24 21Z" fill="#848484"/>
</svg>
