<?xml version="1.0" encoding="utf-8"?>
<!-- Generator: Adobe Illustrator 26.0.2, SVG Export Plug-In . SVG Version: 6.00 Build 0)  -->
<svg version="1.1" id="Layer_1" xmlns="http://www.w3.org/2000/svg" xmlns:xlink="http://www.w3.org/1999/xlink" x="0px" y="0px"
	 viewBox="0 0 20 20" style="enable-background:new 0 0 20 20;" xml:space="preserve">
<style type="text/css">
	.st0{fill:none;stroke:#6FB738;stroke-width:1.2;stroke-linecap:round;stroke-miterlimit:10;}
	.st1{fill:none;stroke:#6FB738;stroke-width:1.2;stroke-miterlimit:10;}
</style>
<g>
	<path class="st0" d="M10,4.9v2.8"/>
	<path class="st0" d="M10,1.2C7,1.2,4.5,3.6,4.5,6.7v1.8c0,0.6-0.2,1.4-0.5,1.9l-1.1,1.8c-0.6,1.1-0.2,2.3,1,2.7
		c4,1.3,8.3,1.3,12.3,0c1.1-0.4,1.6-1.7,1-2.7l-1.1-1.8c-0.3-0.5-0.5-1.3-0.5-1.9V6.7C15.6,3.7,13.1,1.2,10,1.2z"/>
	<path class="st1" d="M12.8,15.2c0,1.5-1.2,2.8-2.8,2.8c-0.8,0-1.5-0.3-2-0.8s-0.8-1.2-0.8-2"/>
</g>
</svg>
