<svg width="15" height="16" viewBox="0 0 15 16" fill="none" xmlns="http://www.w3.org/2000/svg">
<path opacity="0.8" d="M4.83716 5.625C4.15356 5.625 3.53345 5.8252 2.97681 6.22559C2.42993 6.62598 2.04907 7.14844 1.83423 7.79297C1.76587 7.98828 1.64868 8.14453 1.48267 8.26172C1.31665 8.37891 1.13599 8.4375 0.940674 8.4375C0.891846 8.4375 0.843018 8.43262 0.794189 8.42285C0.745361 8.41309 0.696533 8.40332 0.647705 8.39355C0.403564 8.30566 0.2229 8.14941 0.105713 7.9248C-0.0114746 7.69043 -0.0310059 7.45117 0.0471191 7.20703C0.2229 6.68945 0.467041 6.21582 0.779541 5.78613C1.10181 5.36621 1.4729 5.00488 1.89282 4.70215C2.31274 4.39941 2.77173 4.16504 3.26978 3.99902C3.77759 3.83301 4.30005 3.75 4.83716 3.75H9.93481L8.71899 2.53418C8.53345 2.34863 8.44067 2.12891 8.44067 1.875C8.44067 1.61133 8.53345 1.3916 8.71899 1.21582C8.90454 1.03027 9.12427 0.9375 9.37817 0.9375C9.64185 0.9375 9.86157 1.03027 10.0374 1.21582L12.8499 4.02832C13.0354 4.21387 13.1282 4.43848 13.1282 4.70215C13.1282 4.95605 13.0354 5.1709 12.8499 5.34668L10.0374 8.15918C9.85181 8.34473 9.6272 8.4375 9.36353 8.4375C9.10962 8.4375 8.89478 8.34473 8.71899 8.15918C8.53345 7.97363 8.44067 7.75391 8.44067 7.5C8.44067 7.23633 8.53345 7.0166 8.71899 6.84082L9.93481 5.625H4.83716ZM14.3586 8.48145C14.6028 8.56934 14.7834 8.73047 14.9006 8.96484C15.0178 9.18945 15.0374 9.42383 14.9592 9.66797C14.7834 10.1855 14.5393 10.6592 14.2268 11.0889C13.9045 11.5088 13.5334 11.8701 13.1135 12.1729C12.6936 12.4756 12.2346 12.71 11.7366 12.876C11.2288 13.042 10.7063 13.125 10.1692 13.125H5.07153L6.28735 14.3408C6.4729 14.5264 6.56567 14.7461 6.56567 15C6.56567 15.2637 6.4729 15.4834 6.28735 15.6592C6.10181 15.8447 5.8772 15.9375 5.61353 15.9375C5.35962 15.9375 5.14478 15.8447 4.96899 15.6592L2.15649 12.8467C1.97095 12.6611 1.87817 12.4414 1.87817 12.1875C1.87817 11.9238 1.97095 11.7041 2.15649 11.5283L4.96899 8.71582C5.15454 8.53027 5.37427 8.4375 5.62817 8.4375C5.89185 8.4375 6.11157 8.53027 6.28735 8.71582C6.4729 8.90137 6.56567 9.12598 6.56567 9.38965C6.56567 9.64355 6.4729 9.8584 6.28735 10.0342L5.07153 11.25H10.1692C10.8528 11.25 11.468 11.0498 12.0149 10.6494C12.5715 10.249 12.9573 9.72656 13.1721 9.08203C13.2405 8.88672 13.3577 8.73047 13.5237 8.61328C13.6897 8.49609 13.8704 8.4375 14.0657 8.4375C14.1145 8.4375 14.1633 8.44238 14.2122 8.45215C14.261 8.46191 14.3098 8.47168 14.3586 8.48145Z" fill="white"/>
</svg>
