<svg width="16" height="15" viewBox="0 0 16 15" fill="none" xmlns="http://www.w3.org/2000/svg">
<path d="M1.4209 15C1.24512 14.9805 1.0791 14.9316 0.922852 14.8535C0.766602 14.7852 0.629883 14.6924 0.512695 14.5752C0.424805 14.4971 0.341797 14.4043 0.263672 14.2969C0.195312 14.1992 0.141602 14.0918 0.102539 13.9746V13.96C0.0732422 13.8916 0.0488281 13.8232 0.0292969 13.7549C0.00976562 13.6768 0 13.5986 0 13.5205V1.47949C0 1.0791 0.141602 0.737305 0.424805 0.454102C0.708008 0.170898 1.0498 0.0292969 1.4502 0.0292969H6.00586C6.26953 0.0390625 6.52344 0.0878906 6.76758 0.175781C7.01172 0.263672 7.23145 0.380859 7.42676 0.527344C7.54395 0.644531 7.83691 0.957031 8.30566 1.46484C8.78418 1.96289 9.28711 2.49023 9.81445 3.04688C10.3418 3.60352 10.8154 4.10645 11.2354 4.55566C11.6553 5.00488 11.8652 5.22949 11.8652 5.22949L7.57324 9.81445L9.41895 11.8066H11.8945V0H13.667C13.96 0.0390625 14.2236 0.151367 14.458 0.336914C14.6924 0.512695 14.8633 0.737305 14.9707 1.01074V1.02539C15.0098 1.09375 15.0342 1.16699 15.0439 1.24512C15.0635 1.32324 15.0781 1.40137 15.0879 1.47949V13.3887C15.0879 13.418 15.083 13.4521 15.0732 13.4912C15.0732 13.5205 15.0732 13.5498 15.0732 13.5791V13.5645V13.5938C15.0537 13.7305 15.0195 13.8574 14.9707 13.9746C14.9219 14.0918 14.8584 14.2041 14.7803 14.3115C14.751 14.3506 14.7217 14.3896 14.6924 14.4287C14.6631 14.4775 14.6289 14.5166 14.5898 14.5459C14.4629 14.6533 14.3262 14.7412 14.1797 14.8096C14.0332 14.8779 13.8721 14.9268 13.6963 14.9561H8.84766C8.68164 14.9365 8.52051 14.9023 8.36426 14.8535C8.21777 14.8047 8.07617 14.7412 7.93945 14.6631L7.9541 14.6777C7.76855 14.541 7.41211 14.2139 6.88477 13.6963C6.36719 13.1689 5.83496 12.6172 5.28809 12.041C4.74121 11.4648 4.25781 10.9473 3.83789 10.4883C3.4082 10.0293 3.19336 9.7998 3.19336 9.7998V15H1.4209ZM3.19336 9.7998L7.51465 5.21484L5.625 3.20801H3.19336V9.7998Z" fill="white"/>
</svg>
