<svg width="16" height="16" viewBox="0 0 16 16" fill="none" xmlns="http://www.w3.org/2000/svg">
<path d="M15.8594 15.1406C15.9531 15.2448 16 15.3646 16 15.5C16 15.6354 15.9531 15.7552 15.8594 15.8594C15.8073 15.901 15.75 15.9323 15.6875 15.9531C15.625 15.9844 15.5625 16 15.5 16C15.4375 16 15.375 15.9844 15.3125 15.9531C15.25 15.9323 15.1927 15.901 15.1406 15.8594L10.7188 11.4375C10.1563 11.9167 9.51563 12.2969 8.79688 12.5781C8.07812 12.8594 7.3125 13 6.5 13C5.60417 13 4.76042 12.8281 3.96875 12.4844C3.17708 12.151 2.48438 11.6927 1.89063 11.1094C1.30729 10.5156 0.848958 9.82292 0.515625 9.03125C0.171875 8.23958 0 7.39583 0 6.5C0 5.60417 0.171875 4.76042 0.515625 3.96875C0.848958 3.17708 1.30729 2.48958 1.89063 1.90625C2.48438 1.3125 3.17708 0.848958 3.96875 0.515625C4.76042 0.171875 5.60417 0 6.5 0C7.39583 0 8.23958 0.171875 9.03125 0.515625C9.82292 0.848958 10.5104 1.3125 11.0938 1.90625C11.6875 2.48958 12.151 3.17708 12.4844 3.96875C12.8281 4.76042 13 5.60417 13 6.5C13 7.3125 12.8594 8.07812 12.5781 8.79688C12.2969 9.51563 11.9167 10.1563 11.4375 10.7188L15.8594 15.1406ZM6.5 12C7.26042 12 7.97396 11.8542 8.64062 11.5625C9.30729 11.2813 9.89062 10.8906 10.3906 10.3906C10.8906 9.89062 11.2813 9.30729 11.5625 8.64062C11.8542 7.97396 12 7.26042 12 6.5C12 5.73958 11.8542 5.02604 11.5625 4.35938C11.2813 3.69271 10.8906 3.10938 10.3906 2.60938C9.89062 2.10938 9.30729 1.71875 8.64062 1.4375C7.97396 1.14583 7.26042 1 6.5 1C5.73958 1 5.02604 1.14583 4.35938 1.4375C3.69271 1.71875 3.10938 2.10938 2.60938 2.60938C2.10938 3.10938 1.71875 3.69271 1.4375 4.35938C1.14583 5.02604 1 5.73958 1 6.5C1 7.26042 1.14583 7.97396 1.4375 8.64062C1.71875 9.30729 2.10938 9.89062 2.60938 10.3906C3.10938 10.8906 3.69271 11.2813 4.35938 11.5625C5.02604 11.8542 5.73958 12 6.5 12Z" fill="#848484"/>
</svg>
