<?xml version="1.0" encoding="utf-8"?>
<!-- Generator: Adobe Illustrator 26.0.2, SVG Export Plug-In . SVG Version: 6.00 Build 0)  -->
<svg version="1.1" id="Layer_1" xmlns="http://www.w3.org/2000/svg" xmlns:xlink="http://www.w3.org/1999/xlink" x="0px" y="0px"
	 viewBox="0 0 20 20" style="enable-background:new 0 0 20 20;" xml:space="preserve">
<style type="text/css">
	.st0{fill:none;stroke:#6FB738;stroke-width:1.2;stroke-linecap:round;stroke-linejoin:round;stroke-miterlimit:10;}
</style>
<g>
	<path class="st0" d="M10,12.5c1.4,0,2.5-1.1,2.5-2.5S11.4,7.5,10,7.5S7.5,8.6,7.5,10S8.6,12.5,10,12.5z"/>
	<path class="st0" d="M1.7,10.7V9.3c0-0.9,0.7-1.6,1.6-1.6c1.5,0,2.1-1.1,1.4-2.4C4.2,4.6,4.4,3.6,5.2,3.1l1.4-0.8
		c0.7-0.4,1.5-0.2,1.9,0.5L8.6,3c0.8,1.3,2,1.3,2.7,0l0.1-0.2c0.4-0.7,1.2-0.9,1.9-0.5l1.4,0.8c0.8,0.4,1,1.4,0.6,2.2
		c-0.8,1.3-0.1,2.4,1.4,2.4c0.9,0,1.6,0.7,1.6,1.6v1.5c0,0.9-0.7,1.6-1.6,1.6c-1.5,0-2.1,1.1-1.4,2.4c0.4,0.8,0.2,1.7-0.6,2.2
		l-1.4,0.8c-0.7,0.4-1.5,0.2-1.9-0.5L11.4,17c-0.8-1.3-2-1.3-2.7,0l-0.1,0.2c-0.4,0.7-1.2,0.9-1.9,0.5l-1.4-0.8
		c-0.8-0.4-1-1.4-0.6-2.2c0.8-1.3,0.1-2.4-1.4-2.4C2.4,12.3,1.7,11.6,1.7,10.7z"/>
</g>
</svg>
