<svg width="16" height="18" viewBox="0 0 16 18" fill="none" xmlns="http://www.w3.org/2000/svg">
<path d="M15.0167 2.8C15.3167 2.92222 15.5556 3.11667 15.7333 3.38333C15.9111 3.65 16 3.94444 16 4.26667C16 6.43333 15.6611 8.31667 14.9833 9.91667C14.3056 11.5167 13.5167 12.85 12.6167 13.9167C11.7167 14.9722 10.8222 15.7611 9.93333 16.2833C9.05556 16.8056 8.41111 17.0667 8 17.0667C7.57778 17.0667 6.92222 16.8 6.03333 16.2667C5.15556 15.7444 4.26667 14.95 3.36667 13.8833C2.47778 12.8167 1.69444 11.4833 1.01667 9.88333C0.338889 8.28333 0 6.41111 0 4.26667C0 3.94444 0.0888889 3.65 0.266667 3.38333C0.444444 3.11667 0.683333 2.91667 0.983333 2.78333L7.38333 0.116667C7.48333 0.0833333 7.58333 0.0555556 7.68333 0.0333333C7.79445 0.0111111 7.9 0 8 0C8.11111 0 8.21667 0.0111111 8.31667 0.0333333C8.41667 0.0555556 8.51667 0.0888889 8.61667 0.133333L15.0167 2.8ZM1.06667 4.26667C1.06667 5.68889 1.25 7.01667 1.61667 8.25C1.99444 9.49444 2.48333 10.6167 3.08333 11.6167C3.68333 12.6167 4.36667 13.4722 5.13333 14.1833C5.9 14.9056 6.67778 15.4444 7.46667 15.8V1.25L1.38333 3.78333C1.29444 3.81667 1.21667 3.87778 1.15 3.96667C1.09444 4.05556 1.06667 4.15556 1.06667 4.26667ZM14.9333 4.28333C14.9333 4.23889 14.9167 4.16111 14.8833 4.05C14.85 3.92778 14.7556 3.83333 14.6 3.76667L8.53333 1.25V15.8167C9.32222 15.45 10.1 14.9056 10.8667 14.1833C11.6333 13.4722 12.3167 12.6222 12.9167 11.6333C13.5167 10.6333 14 9.51111 14.3667 8.26667C14.7444 7.02222 14.9333 5.69444 14.9333 4.28333Z" fill="#848484"/>
</svg>
