<?xml version="1.0" encoding="utf-8"?>
<!-- Generator: Adobe Illustrator 26.0.2, SVG Export Plug-In . SVG Version: 6.00 Build 0)  -->
<svg version="1.1" id="Layer_1" xmlns="http://www.w3.org/2000/svg" xmlns:xlink="http://www.w3.org/1999/xlink" x="0px" y="0px"
	 viewBox="0 0 20 20" style="enable-background:new 0 0 20 20;" xml:space="preserve">
<style type="text/css">
	.st0{fill:none;stroke:#6FB738;stroke-width:1.2;stroke-linecap:round;stroke-linejoin:round;}
</style>
<g>
	<path class="st0" d="M2.5,9.4v3.7c0,3.7,1.5,5.2,5.2,5.2h4.5c3.7,0,5.2-1.5,5.2-5.2V9.4"/>
	<path class="st0" d="M10,10c1.5,0,2.6-1.2,2.5-2.8l-0.6-5.6H8.1L7.5,7.2C7.3,8.8,8.5,10,10,10z"/>
	<path class="st0" d="M15.3,10c1.7,0,2.9-1.4,2.8-3l-0.2-2.3c-0.3-2.2-1.1-3-3.3-3h-2.5l0.6,5.8C12.6,8.9,13.9,10,15.3,10z"/>
	<path class="st0" d="M4.7,10c1.4,0,2.6-1.1,2.8-2.5l0.2-1.8l0.4-4H5.5c-2.2,0-3,0.8-3.3,3L1.9,7C1.8,8.6,3,10,4.7,10z"/>
	<path class="st0" d="M10,14.2c-1.4,0-2.1,0.7-2.1,2.1v2.1h4.2v-2.1C12.1,14.9,11.4,14.2,10,14.2z"/>
</g>
</svg>
