<svg width="32" height="32" viewBox="0 0 32 32" fill="none" xmlns="http://www.w3.org/2000/svg">
<rect width="32" height="32" rx="4" fill="#F4F4F4"/>
<path d="M24.5329 13.5019C24.7149 13.5019 24.8684 13.5701 24.9935 13.7066C25.13 13.8317 25.1982 13.9852 25.1982 14.1671V15.4976C25.1982 15.6796 25.13 15.8388 24.9935 15.9752C24.8684 16.1003 24.7149 16.1629 24.5329 16.1629C24.351 16.1629 24.1918 16.1003 24.0553 15.9752C23.9302 15.8388 23.8677 15.6796 23.8677 15.4976V14.1671C23.8677 13.9852 23.9302 13.8317 24.0553 13.7066C24.1918 13.5701 24.351 13.5019 24.5329 13.5019ZM11.4669 18.1757C11.012 18.1757 10.5799 18.0847 10.1705 17.9028C9.77247 17.7322 9.41994 17.4991 9.11291 17.2034C8.81724 16.8964 8.57844 16.5381 8.39649 16.1288C8.22591 15.7308 8.14062 15.2986 8.14062 14.8324C8.14062 14.3775 8.22591 13.9454 8.39649 13.536C8.57844 13.1266 8.81724 12.7741 9.11291 12.4784C9.41994 12.1714 9.77247 11.9326 10.1705 11.762C10.5799 11.5915 11.012 11.5062 11.4669 11.5062H15.646C15.8734 11.5062 16.0895 11.472 16.2941 11.4038C16.4988 11.3242 16.6865 11.2219 16.857 11.0968L19.3304 9.23751C19.501 9.11242 19.6886 9.01576 19.8933 8.94753C20.098 8.86793 20.314 8.82812 20.5415 8.82812C21.0873 8.82812 21.5536 9.02713 21.9402 9.42514C22.3382 9.81178 22.5372 10.2837 22.5372 10.8409V18.8409C22.5372 19.3868 22.3382 19.8587 21.9402 20.2567C21.5536 20.6433 21.0873 20.8367 20.5415 20.8367C20.314 20.8367 20.098 20.8025 19.8933 20.7343C19.6886 20.6547 19.501 20.5524 19.3304 20.4273L16.857 18.568C16.6865 18.4429 16.4988 18.3462 16.2941 18.278C16.0895 18.2098 15.8734 18.1757 15.646 18.1757H11.4669ZM11.4669 12.8367C10.921 12.8367 10.4491 13.0357 10.0511 13.4337C9.66443 13.8203 9.47112 14.2865 9.47112 14.8324C9.47112 15.3896 9.66443 15.8615 10.0511 16.2482C10.4491 16.6348 10.921 16.8281 11.4669 16.8281H15.646C16.0212 16.8281 16.3794 16.8907 16.7206 17.0158C17.0617 17.1295 17.3688 17.2887 17.6417 17.4934L20.1321 19.3697C20.189 19.4152 20.2515 19.4493 20.3197 19.472C20.388 19.4948 20.4619 19.5062 20.5415 19.5062C20.7234 19.5062 20.8769 19.4436 21.002 19.3185C21.1385 19.1821 21.2067 19.0229 21.2067 18.8409V10.8409C21.2067 10.6476 21.1385 10.4884 21.002 10.3633C20.8769 10.2382 20.7234 10.1757 20.5415 10.1757C20.4619 10.1757 20.388 10.187 20.3197 10.2098C20.2515 10.2325 20.189 10.261 20.1321 10.2951L17.6417 12.1714L17.6587 12.1544C17.3745 12.3704 17.0617 12.541 16.7206 12.6661C16.3794 12.7798 16.0212 12.8367 15.646 12.8367H13.3432V14.8324C13.3432 15.0143 13.275 15.1735 13.1385 15.31C13.0134 15.4351 12.8599 15.4976 12.6779 15.4976C12.4846 15.4976 12.3197 15.4351 12.1833 15.31C12.0582 15.1735 11.9956 15.0143 11.9956 14.8324V12.8367H11.4669ZM13.3432 20.8367V22.8324C13.3432 23.3896 13.1442 23.8615 12.7462 24.2482C12.3595 24.6348 11.8876 24.8281 11.3304 24.8281C10.7845 24.8281 10.3126 24.6348 9.91461 24.2482C9.52797 23.8615 9.33465 23.3896 9.33465 22.8324V20.1714C9.33465 19.9895 9.3972 19.8359 9.52229 19.7109C9.65875 19.5744 9.81795 19.5062 9.9999 19.5062C10.1818 19.5062 10.3354 19.5744 10.4605 19.7109C10.5969 19.8359 10.6651 19.9895 10.6651 20.1714V22.8324C10.6651 23.0143 10.7277 23.1735 10.8528 23.31C10.9892 23.4351 11.1484 23.4976 11.3304 23.4976C11.5237 23.4976 11.6829 23.4351 11.808 23.31C11.9445 23.1735 12.0127 23.0143 12.0127 22.8324V20.1714C12.0127 19.9895 12.0752 19.8359 12.2003 19.7109C12.3254 19.5744 12.4846 19.5062 12.6779 19.5062H14.0084C14.1904 19.5062 14.3439 19.5744 14.469 19.7109C14.6054 19.8359 14.6737 19.9895 14.6737 20.1714C14.6737 20.3534 14.6054 20.5126 14.469 20.649C14.3439 20.7741 14.1904 20.8367 14.0084 20.8367H13.3432Z" fill="#848484"/>
</svg>
