<svg width="32" height="32" viewBox="0 0 32 32" fill="none" xmlns="http://www.w3.org/2000/svg">
<rect width="32" height="32" rx="4" fill="#F4F4F4"/>
<path d="M23.0167 10.8C23.3167 10.9222 23.5556 11.1167 23.7333 11.3833C23.9111 11.65 24 11.9444 24 12.2667C24 14.4333 23.6611 16.3167 22.9833 17.9167C22.3056 19.5167 21.5167 20.85 20.6167 21.9167C19.7167 22.9722 18.8222 23.7611 17.9333 24.2833C17.0556 24.8056 16.4111 25.0667 16 25.0667C15.5778 25.0667 14.9222 24.8 14.0333 24.2667C13.1556 23.7444 12.2667 22.95 11.3667 21.8833C10.4778 20.8167 9.69444 19.4833 9.01667 17.8833C8.33889 16.2833 8 14.4111 8 12.2667C8 11.9444 8.08889 11.65 8.26667 11.3833C8.44444 11.1167 8.68333 10.9167 8.98333 10.7833L15.3833 8.11667C15.4833 8.08333 15.5833 8.05556 15.6833 8.03333C15.7944 8.01111 15.9 8 16 8C16.1111 8 16.2167 8.01111 16.3167 8.03333C16.4167 8.05556 16.5167 8.08889 16.6167 8.13333L23.0167 10.8ZM9.06667 12.2667C9.06667 13.6889 9.25 15.0167 9.61667 16.25C9.99444 17.4944 10.4833 18.6167 11.0833 19.6167C11.6833 20.6167 12.3667 21.4722 13.1333 22.1833C13.9 22.9056 14.6778 23.4444 15.4667 23.8V9.25L9.38333 11.7833C9.29444 11.8167 9.21667 11.8778 9.15 11.9667C9.09444 12.0556 9.06667 12.1556 9.06667 12.2667ZM22.9333 12.2833C22.9333 12.2389 22.9167 12.1611 22.8833 12.05C22.85 11.9278 22.7556 11.8333 22.6 11.7667L16.5333 9.25V23.8167C17.3222 23.45 18.1 22.9056 18.8667 22.1833C19.6333 21.4722 20.3167 20.6222 20.9167 19.6333C21.5167 18.6333 22 17.5111 22.3667 16.2667C22.7444 15.0222 22.9333 13.6944 22.9333 12.2833Z" fill="#848484"/>
</svg>
