<svg width="32" height="32" viewBox="0 0 32 32" fill="none" xmlns="http://www.w3.org/2000/svg">
<rect width="32" height="32" rx="4" fill="#F4F4F4"/>
<g clip-path="url(#clip0_232_540)">
<path d="M24.3508 10.1193C23.1256 13.1593 20.0548 17.2918 17.4852 19.3422L15.918 20.5931C15.7191 20.7356 15.5203 20.8622 15.2975 20.9493C15.2975 20.8068 15.2895 20.6485 15.2657 20.4981C15.1782 19.8331 14.8759 19.2156 14.3428 18.6851C13.8019 18.1468 13.1416 17.8301 12.4654 17.7431C12.3063 17.7351 12.1471 17.7193 11.988 17.7351C12.0755 17.4897 12.2108 17.2601 12.3779 17.0701L13.6189 15.5106C15.6714 12.9535 19.8401 9.88181 22.887 8.67056C23.3564 8.4964 23.8098 8.62306 24.0962 8.91598C24.3985 9.2089 24.5417 9.66015 24.3508 10.1193Z" stroke="#848484" stroke-width="1.2" stroke-linecap="round" stroke-linejoin="round"/>
<path d="M15.2974 20.9494C15.2974 21.8202 14.9633 22.6515 14.3348 23.2848C13.8495 23.7677 13.1892 24.1002 12.4016 24.2031L10.4446 24.4169C9.37856 24.5356 8.46369 23.6331 8.59097 22.5565L8.80577 20.609C8.9967 18.8752 10.4525 17.7669 11.9959 17.7352C12.155 17.7273 12.3221 17.7352 12.4732 17.7431C13.1494 17.8302 13.8097 18.139 14.3507 18.6852C14.8837 19.2156 15.186 19.8331 15.2735 20.4981C15.2815 20.6485 15.2974 20.799 15.2974 20.9494Z" stroke="#848484" stroke-width="1.2" stroke-linecap="round" stroke-linejoin="round"/>
<path d="M18.3286 18.4555C18.3286 16.3893 16.642 14.7109 14.5657 14.7109" stroke="#848484" stroke-width="1.2" stroke-linecap="round" stroke-linejoin="round"/>
<path d="M23.0064 17.0781L23.5951 17.656C24.7805 18.8356 24.7805 19.9994 23.5951 21.179L21.2403 23.5223C20.0709 24.686 18.8855 24.686 17.7161 23.5223" stroke="#848484" stroke-width="1.2" stroke-linecap="round"/>
<path d="M9.47425 15.3206C8.30481 14.141 8.30481 12.9773 9.47425 11.7977L11.8291 9.45436C12.9985 8.29061 14.1839 8.29061 15.3533 9.45436L15.942 10.0402" stroke="#848484" stroke-width="1.2" stroke-linecap="round"/>
<path d="M15.9499 10.0479L13.0063 12.977" stroke="#848484" stroke-width="1.2" stroke-linecap="round"/>
<path d="M23.0064 17.0781L20.6516 19.4135" stroke="#848484" stroke-width="1.5" stroke-linecap="round"/>
</g>
<defs>
<clipPath id="clip0_232_540">
<rect width="19.093" height="19" fill="white" transform="translate(7 7)"/>
</clipPath>
</defs>
</svg>
