<svg width="32" height="32" viewBox="0 0 32 32" fill="none" xmlns="http://www.w3.org/2000/svg">
<rect width="32" height="32" rx="4" fill="#F4F4F4"/>
<path d="M11.3125 18.4531C11.3125 18.4531 11.5417 18.6979 12 19.1875C12.4479 19.6771 12.9635 20.2292 13.5469 20.8438C14.1302 21.4583 14.6979 22.0469 15.25 22.6094C15.8125 23.1615 16.1927 23.5104 16.3906 23.6562L16.375 23.6406C16.5208 23.724 16.6719 23.7917 16.8281 23.8438C16.9948 23.8958 17.1667 23.9323 17.3438 23.9531H22.5156C22.7031 23.9219 22.875 23.8698 23.0312 23.7969C23.1875 23.724 23.3333 23.6302 23.4688 23.5156C23.5104 23.4844 23.5469 23.4427 23.5781 23.3906C23.6094 23.349 23.6406 23.3073 23.6719 23.2656C23.7552 23.151 23.8229 23.0312 23.875 22.9062C23.9271 22.7812 23.9635 22.6458 23.9844 22.5V22.4688V22.4844C23.9844 22.4531 23.9844 22.4219 23.9844 22.3906C23.9948 22.349 24 22.3125 24 22.2812V9.57812C23.9896 9.49479 23.974 9.41146 23.9531 9.32812C23.9427 9.24479 23.9167 9.16667 23.875 9.09375V9.07812C23.7604 8.78646 23.5781 8.54688 23.3281 8.35938C23.0781 8.16146 22.7969 8.04167 22.4844 8H20.5938V20.5938H17.9531L15.9844 18.4688L20.5625 13.5781C20.5625 13.5781 20.3385 13.3385 19.8906 12.8594C19.4427 12.3802 18.9375 11.8438 18.375 11.25C17.8125 10.6562 17.276 10.0938 16.7656 9.5625C16.2656 9.02083 15.9531 8.6875 15.8281 8.5625C15.6198 8.40625 15.3854 8.28125 15.125 8.1875C14.8646 8.09375 14.5938 8.04167 14.3125 8.03125H9.45312C9.02604 8.03125 8.66146 8.18229 8.35938 8.48438C8.05729 8.78646 7.90625 9.15104 7.90625 9.57812V22.4219C7.90625 22.5052 7.91667 22.5885 7.9375 22.6719C7.95833 22.7448 7.98438 22.8177 8.01562 22.8906V22.9062C8.05729 23.0312 8.11458 23.1458 8.1875 23.25C8.27083 23.3646 8.35938 23.4635 8.45312 23.5469C8.57812 23.6719 8.72396 23.7708 8.89062 23.8438C9.05729 23.9271 9.23438 23.9792 9.42188 24H11.3125V18.4531ZM11.3125 18.4531L15.9219 13.5625L13.9062 11.4219H11.3125V18.4531Z" stroke="#848484"/>
</svg>
