<?xml version="1.0" encoding="utf-8"?>
<!-- Generator: Adobe Illustrator 26.0.2, SVG Export Plug-In . SVG Version: 6.00 Build 0)  -->
<svg version="1.1" id="Layer_1" xmlns="http://www.w3.org/2000/svg" xmlns:xlink="http://www.w3.org/1999/xlink" x="0px" y="0px"
	 viewBox="0 0 20 20" style="enable-background:new 0 0 20 20;" xml:space="preserve">
<style type="text/css">
	.st0{fill:none;stroke:#6FB738;stroke-width:1.5;stroke-linecap:round;stroke-linejoin:round;}
</style>
<g>
	<path class="st0" d="M7,10l2,2l4-4"/>
	<path class="st0" d="M9,2c0.6-0.5,1.5-0.5,2.1,0l1.3,1.1c0.2,0.2,0.7,0.4,1,0.4h1.4c0.9,0,1.6,0.7,1.6,1.6v1.4
		c0,0.3,0.2,0.8,0.4,1.1L18,9c0.5,0.6,0.5,1.5,0,2.1l-1.1,1.3c-0.2,0.2-0.4,0.7-0.4,1v1.4c0,0.9-0.7,1.6-1.6,1.6h-1.4
		c-0.3,0-0.8,0.2-1,0.4L11.1,18c-0.6,0.5-1.5,0.5-2.1,0l-1.3-1.1c-0.2-0.2-0.7-0.4-1.1-0.4H5.2c-0.9,0-1.6-0.7-1.6-1.6v-1.4
		c0-0.3-0.2-0.8-0.4-1L2,11C1.6,10.5,1.6,9.5,2,9l1.1-1.3c0.2-0.2,0.4-0.7,0.4-1V5.2c0-0.9,0.7-1.6,1.6-1.6h1.4
		c0.3,0,0.8-0.2,1.1-0.4L9,2z"/>
</g>
</svg>
