<svg width="168" height="146" viewBox="0 0 168 146" fill="none" xmlns="http://www.w3.org/2000/svg">
<rect width="168" height="146" rx="15" fill="white"/>
<path d="M56.2539 26.1233C56.2539 22.8491 59.0278 20.2523 62.3795 20.2523C65.7313 20.2523 68.5052 22.8491 68.5052 26.1233V69.1394C68.5052 72.4136 65.7313 75.1233 62.3795 75.0104C59.0278 75.0104 56.2539 72.4136 56.2539 69.1394V26.1233Z" fill="#8ED457"/>
<path d="M56.2539 24.3665C56.2539 21.431 58.7966 18.9471 61.8016 18.9471H78.4449C81.5655 18.9471 83.9926 21.431 83.9926 24.3665V25.3826C83.9926 28.431 81.4499 30.802 78.4449 30.802H61.8016C58.7966 30.802 56.2539 28.431 56.2539 25.3826V24.3665Z" fill="url(#paint0_radial_72_1011)"/>
<path d="M101.899 24.8226C101.899 21.4355 104.673 18.8387 108.025 18.8387C111.376 18.8387 114.15 21.4355 114.15 24.8226V69.0807C114.15 72.3549 111.376 75.0646 108.025 75.0646C104.673 75.0646 101.899 72.4678 101.899 69.0807V24.8226Z" fill="#94D761"/>
<path d="M77.9826 30.8065L67.2338 18.9517H61.5705C60.2991 19.1775 59.1434 19.742 58.1032 20.5323C57.1785 21.5484 56.4851 22.7904 56.2539 24.2581V30.8065V39.1613L68.5052 39.3871V30.8065H77.9826Z" fill="url(#paint1_linear_72_1011)"/>
<path d="M79.2539 18.9516C79.2539 18.9516 82.9524 19.0646 84.6861 20.7581C86.4198 22.4516 101.676 38.371 101.676 38.371L85.264 55.6452L92.4298 63.0968H101.907V18.8387H107.802L114.043 30.6936V69.7581L107.802 74.9516H90.2338C89.078 74.8387 87.8067 74.3871 86.7665 73.8226C83.877 71.9033 68.5052 55.6452 68.5052 55.6452L85.1484 38.4839L77.1735 30.1291L66.8871 18.9516H79.2539Z" fill="url(#paint2_radial_72_1011)"/>
<path d="M68.5052 68.7419H62.0328V75.0645H68.5052V68.7419Z" fill="#8ED457"/>
<path d="M92.4298 63.0968L103.063 74.9516H108.726C109.998 74.7258 111.153 74.1613 112.194 73.371C113.234 72.3548 113.812 71 114.043 69.6451V63.0968V54.7419L101.792 54.5161V63.0968H92.4298Z" fill="url(#paint3_radial_72_1011)"/>
<path opacity="0.62" d="M92.4298 63.0968L103.063 74.9516H108.726C109.998 74.7258 111.153 74.1613 112.194 73.371C113.234 72.3548 113.812 71 114.043 69.6451V63.0968V54.7419L101.792 54.5161V63.0968H92.4298Z" fill="url(#paint4_linear_72_1011)"/>
<path opacity="0.302" d="M68.5052 75.0646H61.6861C60.1836 74.9517 58.7966 74.1613 57.872 73.1452C56.9474 72.1291 56.3695 70.8872 56.2539 69.5323V55.1936H68.5052V75.0646Z" fill="url(#paint5_linear_72_1011)"/>
<path opacity="0.302" d="M101.907 18.8387H108.726C110.229 18.9516 111.616 19.742 112.54 20.7581C113.465 21.7742 114.043 23.0162 114.158 24.371V38.7097H101.907V18.8387Z" fill="url(#paint6_linear_72_1011)"/>
<path d="M26.3065 95.84C26.7198 95.84 27.0465 95.76 27.2865 95.6C27.5398 95.4267 27.6665 95.2 27.6665 94.92C27.6665 94.6667 27.5532 94.2133 27.3265 93.56C27.0998 92.9067 26.4932 91.28 25.5065 88.68L27.4265 87.78L29.7465 94.32C29.9465 94.88 30.1598 95.2733 30.3865 95.5C30.6265 95.7267 30.9598 95.84 31.3865 95.84H31.8465C31.9798 95.84 32.0465 96.2133 32.0465 96.96C32.0465 97.4133 32.0265 97.7 31.9865 97.82C31.9598 97.94 31.9132 98 31.8465 98H31.3065C30.6932 98 30.1865 97.9067 29.7865 97.72C29.3865 97.5333 29.0665 97.2333 28.8265 96.82C28.5865 97.2333 28.2598 97.5333 27.8465 97.72C27.4332 97.9067 26.9198 98 26.3065 98H21.7465L21.5465 95.84H26.3065ZM33.2379 95.84C33.6646 95.84 34.0046 95.7333 34.2579 95.52C34.5246 95.2933 34.6579 94.98 34.6579 94.58V91.36H36.7379V94.5C36.7379 95.3933 37.1979 95.84 38.1179 95.84H38.7979C38.9312 95.84 38.9979 96.2067 38.9979 96.94C38.9979 97.6467 38.9312 98 38.7979 98H38.0379C36.8512 98 36.0646 97.64 35.6779 96.92C35.2112 97.64 34.3979 98 33.2379 98H30.8379C30.7046 98 30.6379 97.6533 30.6379 96.96C30.6379 96.2133 30.7046 95.84 30.8379 95.84H33.2379ZM34.2179 89.08V87.12H36.6179V89.08H34.2179ZM38.2866 95.84C38.7266 95.84 39.04 95.7533 39.2266 95.58C39.4266 95.3933 39.5266 95.1067 39.5266 94.72V94.02C39.5266 92.74 39.88 91.7267 40.5866 90.98C41.3066 90.2333 42.28 89.86 43.5066 89.86C44.7333 89.86 45.6733 90.22 46.3266 90.94C46.98 91.6467 47.3066 92.6667 47.3066 94V94.46C47.3066 94.9533 47.4066 95.3067 47.6066 95.52C47.82 95.7333 48.1333 95.84 48.5466 95.84H49.0466C49.18 95.84 49.2466 96.2133 49.2466 96.96C49.2466 97.6533 49.18 98 49.0466 98H48.5466C47.3866 98 46.6266 97.6267 46.2666 96.88C45.9866 97.2533 45.5933 97.5333 45.0866 97.72C44.58 97.9067 44.0266 98 43.4266 98C42.7466 98 42.1733 97.9067 41.7066 97.72C41.24 97.52 40.9 97.2467 40.6866 96.9C40.4466 97.2867 40.1333 97.5667 39.7466 97.74C39.3733 97.9133 38.8866 98 38.2866 98H37.8066C37.6733 98 37.6066 97.6533 37.6066 96.96C37.6066 96.2133 37.6733 95.84 37.8066 95.84H38.2866ZM45.2466 94C45.2466 93.3067 45.0933 92.7933 44.7866 92.46C44.4933 92.1133 44.04 91.94 43.4266 91.94C42.8133 91.94 42.3533 92.1133 42.0466 92.46C41.7533 92.7933 41.6066 93.3133 41.6066 94.02C41.6066 94.6067 41.76 95.06 42.0666 95.38C42.3733 95.6867 42.8266 95.84 43.4266 95.84C44.04 95.84 44.4933 95.6933 44.7866 95.4C45.0933 95.0933 45.2466 94.6267 45.2466 94ZM49.6171 95.84C50.1638 95.84 50.5771 95.72 50.8571 95.48C51.1371 95.2267 51.2771 94.8733 51.2771 94.42V91.36H53.3571V94.42C53.3571 95.3667 53.8971 95.84 54.9771 95.84C55.5238 95.84 55.9371 95.72 56.2171 95.48C56.4971 95.2267 56.6371 94.8733 56.6371 94.42V91.36H58.7171V94.42C58.7171 94.8733 58.8438 95.2267 59.0971 95.48C59.3504 95.72 59.7304 95.84 60.2371 95.84C60.7571 95.84 61.1438 95.72 61.3971 95.48C61.6638 95.2267 61.7971 94.8733 61.7971 94.42V91.36H63.8571V94.4C63.8571 95.5333 63.5371 96.42 62.8971 97.06C62.2571 97.6867 61.3704 98 60.2371 98C58.8771 98 57.9971 97.6133 57.5971 96.84C57.0771 97.6133 56.2038 98 54.9771 98C54.2304 98 53.6371 97.9067 53.1971 97.72C52.7571 97.52 52.4371 97.2267 52.2371 96.84C51.7171 97.6133 50.8438 98 49.6171 98H48.0371C47.9038 98 47.8371 97.6533 47.8371 96.96C47.8371 96.2133 47.9038 95.84 48.0371 95.84H49.6171ZM58.6571 84.22V86.08H56.5571V84.22H58.6571ZM60.3171 87.16V89.08H54.8771V87.16H60.3171ZM75.3613 95.84C75.4947 95.84 75.5613 96.2133 75.5613 96.96C75.5613 97.6533 75.4947 98 75.3613 98H73.5813C73.448 99.52 72.9213 100.707 72.0013 101.56C71.0947 102.413 69.9013 102.84 68.4213 102.84H65.8413L65.6613 100.68H68.4813C69.428 100.68 70.1747 100.44 70.7213 99.96C71.268 99.48 71.548 98.8267 71.5613 98H69.8413C68.428 98 67.4147 97.7133 66.8013 97.14C66.188 96.5533 65.8813 95.64 65.8813 94.4C65.8813 93.5467 66.0413 92.7933 66.3613 92.14C66.6947 91.4867 67.1547 90.98 67.7413 90.62C68.3413 90.2467 69.028 90.06 69.8013 90.06C70.988 90.06 71.9213 90.46 72.6013 91.26C73.2813 92.0467 73.6213 93.1267 73.6213 94.5V95.84H75.3613ZM67.9613 94.3C67.9613 94.86 68.108 95.26 68.4013 95.5C68.6947 95.7267 69.208 95.84 69.9413 95.84H71.5613V94.54C71.5613 93.7533 71.4013 93.16 71.0813 92.76C70.7613 92.3467 70.3013 92.14 69.7013 92.14C69.1547 92.14 68.728 92.34 68.4213 92.74C68.1147 93.1267 67.9613 93.6467 67.9613 94.3ZM76.9774 95.84C76.6708 95.56 76.4241 95.2067 76.2374 94.78C76.0508 94.3533 75.9574 93.92 75.9574 93.48C75.9574 92.7333 76.1308 92.0667 76.4774 91.48C76.8241 90.88 77.2974 90.4133 77.8974 90.08C78.4974 89.7333 79.1708 89.56 79.9174 89.56C80.6241 89.56 81.2574 89.7267 81.8174 90.06C82.3908 90.3933 82.8374 90.8467 83.1574 91.42C83.4908 91.98 83.6574 92.6067 83.6574 93.3C83.6574 93.8067 83.5374 94.2867 83.2974 94.74C83.0708 95.1933 82.7574 95.56 82.3574 95.84H84.7974C85.2908 95.84 85.6641 95.7533 85.9174 95.58C86.1708 95.4067 86.2974 95.16 86.2974 94.84C86.2974 94.6 86.2374 94.3733 86.1174 94.16C86.0108 93.9333 85.7908 93.6533 85.4574 93.32L81.4974 89.14L82.9774 87.6L87.0374 91.96C87.5041 92.4533 87.8441 92.94 88.0574 93.42C88.2708 93.9 88.3774 94.3933 88.3774 94.9C88.3774 95.8333 88.0574 96.5867 87.4174 97.16C86.7774 97.72 85.9041 98 84.7974 98H82.5574C81.6908 98 81.0641 97.98 80.6774 97.94C80.3041 97.8867 79.9974 97.7867 79.7574 97.64C79.5174 97.7733 79.1774 97.8667 78.7374 97.92C78.3108 97.9733 77.6974 98 76.8974 98H74.3574C74.2241 98 74.1574 97.6533 74.1574 96.96C74.1574 96.2133 74.2241 95.84 74.3574 95.84H76.9774ZM79.7174 95.82C80.3441 95.5533 80.8241 95.22 81.1574 94.82C81.4908 94.42 81.6574 93.9733 81.6574 93.48C81.6574 92.9333 81.4908 92.4933 81.1574 92.16C80.8241 91.8133 80.3774 91.64 79.8174 91.64C79.2574 91.64 78.8041 91.8133 78.4574 92.16C78.1241 92.4933 77.9574 92.9333 77.9574 93.48C77.9574 94.4933 78.5441 95.2733 79.7174 95.82ZM104.533 95.84C104.959 95.84 105.299 95.7333 105.553 95.52C105.819 95.2933 105.953 94.9867 105.953 94.6V91.36H108.033V94.5C108.033 95.3933 108.493 95.84 109.413 95.84H110.093C110.226 95.84 110.293 96.2133 110.293 96.96C110.293 97.6533 110.226 98 110.093 98H109.333C108.146 98 107.359 97.64 106.973 96.92C106.506 97.64 105.693 98 104.533 98H97.6727C96.4861 98 95.5861 97.6933 94.9727 97.08C94.3594 96.4533 94.0527 95.5733 94.0527 94.44V91.36H96.1127V94.16C96.1127 94.72 96.2461 95.14 96.5127 95.42C96.7794 95.7 97.1994 95.84 97.7727 95.84H104.533ZM103.753 87.92V89.84H98.3127V87.92H103.753ZM113.952 95.84C114.365 95.84 114.698 95.7333 114.952 95.52C115.205 95.2933 115.332 94.98 115.332 94.58V91.36H117.412V94.64C117.412 95.6933 117.098 96.52 116.472 97.12C115.858 97.7067 115.018 98 113.952 98H109.092C108.958 98 108.892 97.6533 108.892 96.96C108.892 96.2133 108.958 95.84 109.092 95.84H113.952ZM114.732 100.34V102.26H109.292V100.34H114.732ZM117.206 100.68C118.233 100.68 119.033 100.387 119.606 99.8C120.193 99.2267 120.486 98.4133 120.486 97.36V91.36H122.566V94.44C122.566 95.3733 123.073 95.84 124.086 95.84H124.366C124.499 95.84 124.566 96.2133 124.566 96.96C124.566 97.6533 124.499 98 124.366 98H124.086C123.753 98 123.446 97.9533 123.166 97.86C122.899 97.7533 122.699 97.6133 122.566 97.44V97.56C122.539 98.6 122.299 99.52 121.846 100.32C121.406 101.12 120.786 101.74 119.986 102.18C119.199 102.62 118.279 102.84 117.226 102.84H116.646L116.466 100.68H117.206ZM128.221 95.84C128.635 95.84 128.968 95.7333 129.221 95.52C129.475 95.2933 129.601 94.98 129.601 94.58V91.36H131.681V94.64C131.681 95.6933 131.368 96.52 130.741 97.12C130.128 97.7067 129.288 98 128.221 98H123.361C123.228 98 123.161 97.6533 123.161 96.96C123.161 96.2133 123.228 95.84 123.361 95.84H128.221ZM129.001 100.34V102.26H123.561V100.34H129.001ZM137.826 95.84C138.239 95.84 138.566 95.76 138.806 95.6C139.059 95.4267 139.186 95.2 139.186 94.92C139.186 94.6667 139.073 94.2133 138.846 93.56C138.619 92.9067 138.013 91.28 137.026 88.68L138.946 87.78L141.266 94.32C141.466 94.88 141.679 95.2733 141.906 95.5C142.146 95.7267 142.479 95.84 142.906 95.84H143.366C143.499 95.84 143.566 96.2133 143.566 96.96C143.566 97.4133 143.546 97.7 143.506 97.82C143.479 97.94 143.433 98 143.366 98H142.826C142.213 98 141.706 97.9067 141.306 97.72C140.906 97.5333 140.586 97.2333 140.346 96.82C140.106 97.2333 139.779 97.5333 139.366 97.72C138.953 97.9067 138.439 98 137.826 98H133.266L133.066 95.84H137.826ZM142.837 95.84C143.277 95.84 143.591 95.7533 143.777 95.58C143.977 95.3933 144.077 95.1067 144.077 94.72V94.02C144.077 92.74 144.431 91.7267 145.137 90.98C145.857 90.2333 146.831 89.86 148.057 89.86C149.284 89.86 150.224 90.22 150.877 90.94C151.531 91.6467 151.857 92.6667 151.857 94C151.857 95.2667 151.511 96.2533 150.817 96.96C150.137 97.6533 149.191 98 147.977 98C147.297 98 146.724 97.9067 146.257 97.72C145.791 97.52 145.451 97.2467 145.237 96.9C144.997 97.2867 144.684 97.5667 144.297 97.74C143.924 97.9133 143.437 98 142.837 98H142.357C142.224 98 142.157 97.6533 142.157 96.96C142.157 96.2133 142.224 95.84 142.357 95.84H142.837ZM149.797 94C149.797 93.3067 149.644 92.7933 149.337 92.46C149.044 92.1133 148.591 91.94 147.977 91.94C147.364 91.94 146.904 92.1133 146.597 92.46C146.304 92.7933 146.157 93.3133 146.157 94.02C146.157 94.6067 146.311 95.06 146.617 95.38C146.924 95.6867 147.377 95.84 147.977 95.84C148.591 95.84 149.044 95.6933 149.337 95.4C149.644 95.0933 149.797 94.6267 149.797 94Z" fill="#808080"/>
<line x1="19" y1="121.5" x2="157" y2="121.5" stroke="#DAD4D4" stroke-dasharray="5 2"/>
<rect x="46" y="109" width="81" height="24" rx="12" fill="#F9F9F9"/>
<path d="M65.7854 121.45C65.7854 121.74 65.8704 121.97 66.0404 122.14C66.2204 122.3 66.4754 122.38 66.8054 122.38H67.1504C67.2504 122.38 67.3004 122.66 67.3004 123.22C67.3004 123.74 67.2504 124 67.1504 124H66.8654C66.6354 124 66.4204 123.97 66.2204 123.91C66.0304 123.85 65.8854 123.775 65.7854 123.685V123.76C65.7654 124.51 65.5804 125.18 65.2304 125.77C64.8804 126.36 64.3954 126.815 63.7754 127.135C63.1554 127.465 62.4454 127.63 61.6454 127.63H61.0154C59.7354 127.63 58.7504 127.26 58.0604 126.52C57.3704 125.79 57.0254 124.76 57.0254 123.43V120.52H58.5704V123.4C58.5704 125.14 59.3904 126.01 61.0304 126.01H61.6454C62.4454 126.01 63.0754 125.79 63.5354 125.35C63.9954 124.91 64.2254 124.305 64.2254 123.535V119.02H65.7854V121.45ZM60.2054 118.66V117.19H62.0054V118.66H60.2054ZM69.2054 122.38C69.5254 122.38 69.7804 122.3 69.9704 122.14C70.1704 121.97 70.2704 121.735 70.2704 121.435V119.02H71.8154V121.375C71.8154 122.045 72.1604 122.38 72.8504 122.38H73.3754C73.4754 122.38 73.5254 122.655 73.5254 123.205C73.5254 123.735 73.4754 124 73.3754 124H72.7904C71.9104 124 71.3254 123.73 71.0354 123.19C70.6854 123.73 70.0754 124 69.2054 124H66.4004C66.3004 124 66.2504 123.74 66.2504 123.22C66.2504 122.66 66.3004 122.38 66.4004 122.38H69.2054ZM70.2404 125.755V127.195H66.1604V125.755H70.2404ZM73.703 122.38C74.463 122.38 75.088 122.325 75.578 122.215C76.078 122.105 76.588 121.9 77.108 121.6L78.998 120.52C78.868 120.05 78.683 119.73 78.443 119.56C78.203 119.38 77.843 119.29 77.363 119.29H73.898L74.093 117.67H77.633C78.253 117.67 78.758 117.775 79.148 117.985C79.538 118.185 79.863 118.525 80.123 119.005C80.383 119.485 80.613 120.16 80.813 121.03L77.828 122.905C77.158 123.325 76.513 123.615 75.893 123.775C75.283 123.925 74.528 124 73.628 124H72.623C72.523 124 72.473 123.74 72.473 123.22C72.473 122.66 72.523 122.38 72.623 122.38H73.703ZM78.173 125.755V127.195H74.093V125.755H78.173ZM75.383 129.4V128.005H76.883V129.4H75.383ZM92.4713 122.38C92.7913 122.38 93.0463 122.3 93.2363 122.14C93.4363 121.97 93.5363 121.74 93.5363 121.45V119.02H95.0963V121.375C95.0963 122.045 95.4413 122.38 96.1313 122.38H96.6413C96.7413 122.38 96.7913 122.66 96.7913 123.22C96.7913 123.74 96.7413 124 96.6413 124H96.0713C95.1813 124 94.5913 123.73 94.3013 123.19C93.9513 123.73 93.3413 124 92.4713 124H87.3263C86.4363 124 85.7613 123.77 85.3013 123.31C84.8413 122.84 84.6113 122.18 84.6113 121.33V119.02H86.1563V121.12C86.1563 121.54 86.2563 121.855 86.4563 122.065C86.6563 122.275 86.9713 122.38 87.4013 122.38H92.4713ZM91.8863 116.44V117.88H87.8063V116.44H91.8863ZM97.0756 122.38C97.4856 122.38 97.7956 122.29 98.0056 122.11C98.2156 121.92 98.3206 121.655 98.3206 121.315V119.02H99.8806V121.315C99.8806 122.025 100.286 122.38 101.096 122.38C101.506 122.38 101.816 122.29 102.026 122.11C102.236 121.92 102.341 121.655 102.341 121.315V119.02H103.901V121.315C103.901 121.655 103.996 121.92 104.186 122.11C104.376 122.29 104.661 122.38 105.041 122.38C105.431 122.38 105.721 122.29 105.911 122.11C106.111 121.92 106.211 121.655 106.211 121.315V119.02H107.756V121.3C107.756 122.15 107.516 122.815 107.036 123.295C106.556 123.765 105.891 124 105.041 124C104.021 124 103.361 123.71 103.061 123.13C102.671 123.71 102.016 124 101.096 124C100.536 124 100.091 123.93 99.7606 123.79C99.4306 123.64 99.1906 123.42 99.0406 123.13C98.6506 123.71 97.9956 124 97.0756 124H95.8906C95.7906 124 95.7406 123.74 95.7406 123.22C95.7406 122.66 95.7906 122.38 95.8906 122.38H97.0756ZM109.409 114.31H110.954V124H109.409V114.31ZM114.988 123.52C114.988 124.35 114.823 125.075 114.493 125.695C114.163 126.315 113.693 126.79 113.083 127.12C112.483 127.46 111.783 127.63 110.983 127.63H109.857L109.722 126.01H110.968C111.738 126.01 112.338 125.79 112.767 125.35C113.208 124.92 113.428 124.31 113.428 123.52V119.02H114.988V123.52Z" fill="#8ED457"/>
<defs>
<radialGradient id="paint0_radial_72_1011" cx="0" cy="0" r="1" gradientUnits="userSpaceOnUse" gradientTransform="translate(78.4408 22.6169) scale(13.9162 5.95395)">
<stop stop-color="#74B852"/>
<stop offset="1" stop-color="#8ED457"/>
</radialGradient>
<linearGradient id="paint1_linear_72_1011" x1="77.9289" y1="17.3788" x2="61.341" y2="33.4611" gradientUnits="userSpaceOnUse">
<stop stop-color="#77BC52"/>
<stop offset="1" stop-color="#77BC52" stop-opacity="0"/>
</linearGradient>
<radialGradient id="paint2_radial_72_1011" cx="0" cy="0" r="1" gradientUnits="userSpaceOnUse" gradientTransform="translate(90.5009 46.8734) scale(19.3811 23.0596)">
<stop stop-color="#A4DC76"/>
<stop offset="1" stop-color="#93D760"/>
</radialGradient>
<radialGradient id="paint3_radial_72_1011" cx="0" cy="0" r="1" gradientUnits="userSpaceOnUse" gradientTransform="translate(98.7936 77.8717) scale(20.3348 19.1621)">
<stop stop-color="#77BC52"/>
<stop offset="1" stop-color="#93D760"/>
</radialGradient>
<linearGradient id="paint4_linear_72_1011" x1="95.8929" y1="69.1384" x2="104.043" y2="64.9397" gradientUnits="userSpaceOnUse">
<stop stop-color="#77BC52"/>
<stop offset="1" stop-color="#77BC52" stop-opacity="0"/>
</linearGradient>
<linearGradient id="paint5_linear_72_1011" x1="62.4114" y1="75.043" x2="62.4114" y2="56.5545" gradientUnits="userSpaceOnUse">
<stop stop-color="#65AA40"/>
<stop offset="1" stop-color="#8ED457"/>
</linearGradient>
<linearGradient id="paint6_linear_72_1011" x1="108.066" y1="18.8156" x2="108.066" y2="37.306" gradientUnits="userSpaceOnUse">
<stop stop-color="#65AA40"/>
<stop offset="1" stop-color="#96D863"/>
</linearGradient>
</defs>
</svg>
