<svg width="118" height="119" viewBox="0 0 118 119" fill="none" xmlns="http://www.w3.org/2000/svg">
<g opacity="0.25">
<path d="M50.6794 39.0595L75.4578 53.3654C87.1587 60.1209 85.1696 66.2684 82.1066 73.4017L70.3019 101.001C66.4121 110.043 59.8029 115.45 47.7579 108.496L16.8193 90.6336C4.73981 83.6595 6.11802 75.2321 12.0383 67.3622L30.0375 43.3397C34.6492 37.1004 38.9785 32.304 50.6794 39.0595Z" stroke="white" stroke-width="3" stroke-linecap="round" stroke-linejoin="round"/>
<path d="M46.3221 43.4269L53.2764 31.3818C56.2567 26.2197 61.6851 24.7651 66.8473 27.7455L77.1716 33.7063C82.3338 36.6867 83.7883 42.115 80.8079 47.2772L73.8537 59.3222" stroke="white" stroke-width="3" stroke-linecap="round" stroke-linejoin="round"/>
<path d="M71.0887 99.1608L28.3804 74.5031" stroke="white" stroke-width="3" stroke-linecap="round" stroke-linejoin="round"/>
</g>
</svg>
