<svg width="121" height="121" viewBox="0 0 121 121" fill="none" xmlns="http://www.w3.org/2000/svg">
<g opacity="0.25">
<path d="M93.7428 75.3247L82.7369 94.3874C75.3997 107.096 70.3883 108.439 57.6798 101.101L25.9086 82.7583C13.2002 75.4211 11.8574 70.4097 19.1946 57.7012L37.5377 25.93C44.8749 13.2216 49.8863 11.8788 62.5948 19.216L67.3605 21.9675C72.1262 24.7189 72.3675 26.7222 72.7844 30.1823L73.8814 39.288C74.1716 41.5736 74.3203 42.9303 77.4974 44.7646L87.0287 50.2676C99.7372 57.6048 101.08 62.6162 93.7428 75.3247Z" stroke="white" stroke-width="3" stroke-miterlimit="10"/>
<path d="M65.772 21.0503L94.366 37.5591C100.72 41.2277 102.063 46.2391 98.3944 52.5933L95.8631 56.9778" stroke="white" stroke-width="3" stroke-miterlimit="10" stroke-linecap="round" stroke-linejoin="round"/>
</g>
</svg>
